# xmcd
#
# Track frame offsets: 
#        150
#        16885
#        51122
#        82190
#
# Disc length: 1324 seconds
#
# Revision: 2
# Processed by: cddbd v1.5.1PL0 Copyright (c) Steve Scherf et al.
# Submitted via: ExactAudioCopy v0.95a4
#
DISCID=29052a04
DTITLE=Mai Tai - Bet That's What You Say
DYEAR=1900
DGENRE=R&B
TTITLE0=Bet That's What You Say
TTITLE1=Bet That's What You Say (Escape Housemix)
TTITLE2=Bet That's What You Say (Hithouse Remix)
TTITLE3=Too Much of Nothing
EXTD=
EXTT0=
EXTT1=
EXTT2=
EXTT3=
PLAYORDER=
